<?xml version="1.0" standalone="no"?>
<!DOCTYPE svg PUBLIC "-//W3C//DTD SVG 20010904//EN"
 "http://www.w3.org/TR/2001/REC-SVG-20010904/DTD/svg10.dtd">
<svg version="1.0" xmlns="http://www.w3.org/2000/svg"
 width="450.000000pt" height="437.000000pt" viewBox="0 0 450.000000 437.000000"
 preserveAspectRatio="xMidYMid meet">

<g transform="translate(0.000000,437.000000) scale(0.100000,-0.100000)"
fill="#000000" stroke="none">
<path d="M2110 3883 c-321 -30 -542 -100 -795 -251 -229 -136 -460 -370 -601
-608 -258 -435 -314 -970 -153 -1455 109 -327 328 -633 602 -838 548 -413
1263 -476 1867 -165 511 263 858 751 941 1324 16 108 16 371 0 476 -56 383
-225 725 -491 995 -299 303 -672 480 -1095 519 -105 10 -199 11 -275 3z m167
-878 c228 -37 367 -123 438 -272 55 -117 58 -151 64 -748 5 -415 9 -555 19
-572 36 -64 123 -72 226 -19 l67 33 14 -27 c14 -26 13 -27 -48 -63 -96 -55
-178 -79 -292 -85 -205 -9 -331 57 -368 195 l-11 43 -43 -49 c-57 -65 -167
-137 -256 -169 -96 -33 -270 -42 -370 -18 -155 36 -278 130 -338 258 -33 71
-34 76 -34 203 0 126 1 132 33 199 68 145 158 216 372 296 180 67 338 145 433
214 l79 56 -7 -42 c-18 -110 -86 -185 -243 -267 -123 -65 -178 -115 -220 -202
-108 -219 -27 -518 153 -569 56 -16 149 -8 201 16 90 43 157 147 202 313 l25
96 1 475 1 475 -23 40 c-48 84 -134 118 -302 119 -101 1 -121 -2 -162 -22 -41
-20 -50 -31 -80 -95 -69 -149 -94 -191 -130 -220 -76 -61 -178 -41 -220 43
-26 52 -23 99 11 152 63 100 226 189 399 218 81 13 312 11 409 -5z"/>
</g>
</svg>
